# xmcd
#
# Track frame offsets: 
#        150
#        15312
#        32368
#        45589
#        63002
#        79665
#        104381
#        121059
#        139635
#        160654
#        179563
#        197870
#        215281
#        229318
#        247713
#
# Disc length: 3556 seconds
#
# Revision: 0
# Processed by: cddbd v1.5.2PL0 Copyright (c) Steve Scherf et al.
# Submitted via: ExactAudioCopy v0.95b4
#
DISCID=b20de20f
DTITLE=K-Maro - 10th Anniversary Platinum Remixes
DYEAR=2006
DGENRE=R&B
TTITLE0=Lets Go
TTITLE1=Crazy (Remix)
TTITLE2=Dense Dessus (Remix)
TTITLE3=Histoire De Luv (Remix)
TTITLE4=Gangsta Party (Remix)
TTITLE5=Quest Ce Que Ca Te Fout (Remix)
TTITLE6=I Shine
TTITLE7=Beautiful Bizness (Remix)
TTITLE8=Femme Like U (Remix)
TTITLE9=Rolling Down (Remix)
TTITLE10=Les Freres Existent Encore (Remix)
TTITLE11=Le K Ne Chante Plus (Remix)
TTITLE12=The Greatest (Remix)
TTITLE13=Million Dollar Boy (Remix)
TTITLE14=Viens Me Voir
EXTD=
EXTT0=
EXTT1=
EXTT2=
EXTT3=
EXTT4=
EXTT5=
EXTT6=
EXTT7=
EXTT8=
EXTT9=
EXTT10=
EXTT11=
EXTT12=
EXTT13=
EXTT14=
PLAYORDER=
